<?xml version="1.0" encoding="utf-8"?>
<!-- Generator: Adobe Illustrator 15.1.0, SVG Export Plug-In . SVG Version: 6.00 Build 0)  -->
<!DOCTYPE svg PUBLIC "-//W3C//DTD SVG 1.1//EN" "http://www.w3.org/Graphics/SVG/1.1/DTD/svg11.dtd">
<svg version="1.1" id="Calque_1" xmlns:xl="http://www.w3.org/1999/xlink"
	 xmlns="http://www.w3.org/2000/svg" xmlns:xlink="http://www.w3.org/1999/xlink" x="0px" y="0px" width="800px" height="450px"
	 viewBox="0 0 800 450" enable-background="new 0 0 800 450" xml:space="preserve">
<g>
	<g>
		<title>Calque 1</title>
		<path fill="none" stroke="#000000" stroke-linecap="round" stroke-linejoin="round" d="M521.012,200.83h85.271v20.042v4.425"/>
		
			<line fill="none" stroke="#000000" stroke-linecap="round" stroke-linejoin="round" stroke-dasharray="4,4" x1="628.916" y1="349.861" x2="600.986" y2="369"/>
		
			<line fill="none" stroke="#000000" stroke-linecap="round" stroke-linejoin="round" stroke-dasharray="4,4" x1="555.941" y1="349.503" x2="527.49" y2="369"/>
		
			<line fill="none" stroke="#000000" stroke-linecap="round" stroke-linejoin="round" stroke-dasharray="4,4" x1="482.445" y1="349.503" x2="453.994" y2="369"/>
		
			<line fill="none" stroke="#000000" stroke-linecap="round" stroke-linejoin="round" stroke-dasharray="4,4" x1="414.995" y1="349.503" x2="386.545" y2="369"/>
		
			<line fill="none" stroke="#000000" stroke-linecap="round" stroke-linejoin="round" stroke-dasharray="4,4" x1="757.062" y1="254.292" x2="745.688" y2="273.637"/>
		<path fill="none" stroke="#000000" stroke-linecap="round" stroke-linejoin="round" d="M715.025,176.806v4.425v19.6h42.354v20.042
			v4.425"/>
		<path fill="none" stroke="#000000" stroke-linecap="round" stroke-linejoin="round" d="M555.941,287.254h73.491v29.373v4.427"/>
		<path fill="none" stroke="#000000" stroke-linecap="round" stroke-linejoin="round" d="M521.012,287.254h34.934v29.373v4.427"/>
		<path fill="none" stroke="#000000" stroke-linecap="round" stroke-linejoin="round" d="M482.445,287.254v29.373v4.427"/>
		<path fill="none" stroke="#000000" stroke-linecap="round" stroke-linejoin="round" d="M521.012,253.747v4.425v29.082H414.995
			v29.373v4.427"/>
		<path fill="none" stroke="#000000" stroke-linecap="round" stroke-linejoin="round" d="M211.301,289.417h140.273v27.21v4.427"/>
		
			<line fill="none" stroke="#000000" stroke-linecap="round" stroke-linejoin="round" stroke-dasharray="4,4" x1="282.111" y1="349.503" x2="253.66" y2="372.693"/>
		
			<line fill="none" stroke="#000000" stroke-linecap="round" stroke-linejoin="round" stroke-dasharray="4,4" x1="211.301" y1="349.503" x2="182.852" y2="372.693"/>
		
			<line fill="none" stroke="#000000" stroke-linecap="round" stroke-linejoin="round" stroke-dasharray="4,4" x1="140.492" y1="349.503" x2="112.042" y2="372.693"/>
		
			<line fill="none" stroke="#000000" stroke-linecap="round" stroke-linejoin="round" stroke-dasharray="4,4" x1="71.027" y1="349.503" x2="42.578" y2="372.693"/>
		<path fill="none" stroke="#000000" stroke-linecap="round" stroke-linejoin="round" d="M211.301,257.805v4.426v27.188h70.811
			v27.21v4.427"/>
		<path fill="none" stroke="#000000" stroke-linecap="round" stroke-linejoin="round" d="M211.301,289.417v27.21v4.427"/>
		<path fill="none" stroke="#000000" stroke-linecap="round" stroke-linejoin="round" d="M140.492,289.417v27.21v4.427"/>
		<path fill="none" stroke="#000000" stroke-linecap="round" stroke-linejoin="round" d="M211.301,257.805v4.426v27.188H71.027
			v27.21v4.427"/>
		
			<line fill="none" stroke="#000000" stroke-linecap="round" stroke-linejoin="round" stroke-dasharray="4,4" x1="498.252" y1="239.521" x2="476.992" y2="254.961"/>
		
			<line fill="none" stroke="#000000" stroke-linecap="round" stroke-linejoin="round" stroke-dasharray="4,4" x1="187.99" y1="243.889" x2="168.152" y2="254.961"/>
		<path fill="none" stroke="#000000" stroke-linecap="round" stroke-linejoin="round" d="M334.427,200.83h186.584v20.042v4.425"/>
		<path fill="none" stroke="#000000" stroke-linecap="round" stroke-linejoin="round" d="M715.025,176.806v4.425v19.6h-42.992
			v20.042v4.425"/>
		
			<line fill="none" stroke="#000000" stroke-linecap="round" stroke-linejoin="round" stroke-dasharray="4,4" x1="691.71" y1="162.882" x2="675.984" y2="171.431"/>
		
			<line fill="none" stroke="#000000" stroke-linecap="round" stroke-linejoin="round" stroke-dasharray="4,4" x1="311.667" y1="162.58" x2="295.386" y2="171.431"/>
		<path fill="none" stroke="#000000" stroke-linecap="round" stroke-linejoin="round" d="M520.933,122.51h194.097v21.42v4.427"/>
		<path fill="none" stroke="#000000" stroke-linecap="round" stroke-linejoin="round" d="M211.301,200.83v24.101v4.424"/>
		<path fill="none" stroke="#000000" stroke-linecap="round" stroke-linejoin="round" d="M334.427,176.806v4.425v19.6H66.365v24.101
			v4.425"/>
		<path fill="none" stroke="#000000" stroke-linecap="round" stroke-linejoin="round" d="M520.933,97.221v4.426v20.863H334.427
			v21.42v4.427"/>
		<path fill="none" stroke="#000000" stroke-linecap="round" stroke-linejoin="round" d="M520.933,42.554v4.426v17.366v4.425"/>
		<g id="id4_Graphic">
			<path fill="#FFFFFF" d="M489.714,41.922V20.63L520.933,10l31.222,10.63v21.292H489.714z"/>
			<path fill="none" stroke="#000000" stroke-width="2" stroke-linecap="round" stroke-linejoin="round" d="M489.714,41.922V20.63
				L520.933,10l31.222,10.63v21.292H489.714z"/>
			<text transform="matrix(1 0 0 1 500.2773 34.7402)" font-family="'HelveticaNeue-Medium'" font-size="8.8511">document</text>
		</g>
		<g id="id1166_Graphic">
			<rect x="498.173" y="68.771" fill="#FFFFFF" width="45.521" height="28.45"/>
			
				<rect x="498.173" y="68.771" fill="none" stroke="#000000" stroke-width="2" stroke-linecap="round" stroke-linejoin="round" width="45.521" height="28.45"/>
			<text transform="matrix(1 0 0 1 510.6035 86.4756)" font-family="'HelveticaNeue-Medium'" font-size="8.8511">body</text>
		</g>
		<g id="id1173_Graphic">
			<rect x="311.667" y="148.355" fill="#FFFFFF" width="45.521" height="28.45"/>
			
				<rect x="311.667" y="148.355" fill="none" stroke="#000000" stroke-width="2" stroke-linecap="round" stroke-linejoin="round" width="45.521" height="28.45"/>
			<text transform="matrix(1 0 0 1 328.3584 166.0605)" font-family="'HelveticaNeue-Medium'" font-size="8.8511">div</text>
		</g>
		<g id="id1188_Graphic">
			<rect x="692.266" y="148.355" fill="#FFFFFF" width="45.521" height="28.45"/>
			
				<rect x="692.266" y="148.355" fill="none" stroke="#000000" stroke-width="2" stroke-linecap="round" stroke-linejoin="round" width="45.521" height="28.45"/>
			<text transform="matrix(1 0 0 1 708.958 166.0605)" font-family="'HelveticaNeue-Medium'" font-size="8.8511">div</text>
		</g>
		<g id="id1175_Graphic">
			<rect x="43.605" y="229.355" fill="#FFFFFF" width="45.519" height="28.449"/>
			
				<rect x="43.605" y="229.355" fill="none" stroke="#000000" stroke-width="2" stroke-linecap="round" stroke-linejoin="round" width="45.519" height="28.449"/>
			<text transform="matrix(1 0 0 1 56.1982 247.0596)" font-family="'HelveticaNeue-Medium'" font-size="8.8511">head</text>
		</g>
		<g id="id1177_Graphic">
			<rect x="188.542" y="229.355" fill="#FFFFFF" width="45.521" height="28.449"/>
			
				<rect x="188.542" y="229.355" fill="none" stroke="#000000" stroke-width="2" stroke-linecap="round" stroke-linejoin="round" width="45.521" height="28.449"/>
			<text transform="matrix(1 0 0 1 207.6113 247.0596)" font-family="'HelveticaNeue-Medium'" font-size="8.8511">lg</text>
		</g>
		<g id="id1258_Graphic">
			<rect x="583.521" y="225.296" fill="#FFFFFF" width="45.519" height="28.451"/>
			
				<rect x="583.521" y="225.296" fill="none" stroke="#000000" stroke-width="2" stroke-linecap="round" stroke-linejoin="round" width="45.519" height="28.451"/>
			<text transform="matrix(1 0 0 1 598.4961 243.001)" font-family="'HelveticaNeue-Medium'" font-size="8.8511">gap</text>
		</g>
		<g id="id1198_Graphic">
			<rect x="498.252" y="225.296" fill="#FFFFFF" width="45.521" height="28.451"/>
			
				<rect x="498.252" y="225.296" fill="none" stroke="#000000" stroke-width="2" stroke-linecap="round" stroke-linejoin="round" width="45.521" height="28.451"/>
			<text transform="matrix(1 0 0 1 517.3203 243.001)" font-family="'HelveticaNeue-Medium'" font-size="8.8511">lg</text>
		</g>
		<g id="id1190_Graphic">
			<path fill="#FFFFFF" d="M223.243,161.265h59.413c7.026,0,12.729,4.555,12.729,10.166c0,5.612-5.703,10.167-12.729,10.167h-59.413
				c-7.028,0-12.732-4.555-12.732-10.167C210.511,165.819,216.215,161.265,223.243,161.265"/>
			<path fill="none" stroke="#000000" stroke-linecap="round" stroke-linejoin="round" d="M223.243,161.265h59.413
				c7.026,0,12.729,4.555,12.729,10.166c0,5.612-5.703,10.167-12.729,10.167h-59.413c-7.028,0-12.732-4.555-12.732-10.167
				C210.511,165.819,216.215,161.265,223.243,161.265"/>
			<text transform="matrix(1 0 0 1 222.8491 173.9619)" font-family="'HelveticaNeue'" font-size="7.5867">type=&quot;longPoem&quot;</text>
		</g>
		<g id="id1192_Graphic">
			<path fill="#FFFFFF" d="M603.841,161.265h59.411c7.028,0,12.732,4.555,12.732,10.166c0,5.612-5.704,10.167-12.732,10.167h-59.411
				c-7.028,0-12.729-4.555-12.729-10.167C591.11,165.819,596.812,161.265,603.841,161.265"/>
			<path fill="none" stroke="#000000" stroke-linecap="round" stroke-linejoin="round" d="M603.841,161.265h59.411
				c7.028,0,12.732,4.555,12.732,10.166c0,5.612-5.704,10.167-12.732,10.167h-59.411c-7.028,0-12.729-4.555-12.729-10.167
				C591.11,165.819,596.812,161.265,603.841,161.265"/>
			<text transform="matrix(1 0 0 1 603.4492 173.9619)" font-family="'HelveticaNeue'" font-size="7.5867">type=&quot;shortPoem&quot;</text>
		</g>
		<g id="id1196_Graphic">
			<rect x="649.274" y="225.296" fill="#FFFFFF" width="45.52" height="28.451"/>
			
				<rect x="649.274" y="225.296" fill="none" stroke="#000000" stroke-width="2" stroke-linecap="round" stroke-linejoin="round" width="45.52" height="28.451"/>
			<text transform="matrix(1 0 0 1 661.8682 243.001)" font-family="'HelveticaNeue-Medium'" font-size="8.8511">head</text>
		</g>
		<g id="id1244_Graphic">
			<rect x="734.623" y="225.296" fill="#FFFFFF" width="45.521" height="28.451"/>
			
				<rect x="734.623" y="225.296" fill="none" stroke="#000000" stroke-width="2" stroke-linecap="round" stroke-linejoin="round" width="45.521" height="28.451"/>
			<text transform="matrix(1 0 0 1 749.5957 243.001)" font-family="'HelveticaNeue-Medium'" font-size="8.8511">gap</text>
		</g>
		<g id="id1212_Graphic">
			<path fill="#FFFFFF" d="M110.382,244.795h47.575c5.628,0,10.195,4.555,10.195,10.166s-4.566,10.166-10.195,10.166h-47.575
				c-5.627,0-10.194-4.555-10.194-10.166S104.755,244.795,110.382,244.795"/>
			<path fill="none" stroke="#000000" stroke-linecap="round" stroke-linejoin="round" d="M110.382,244.795h47.575
				c5.628,0,10.195,4.555,10.195,10.166s-4.566,10.166-10.195,10.166h-47.575c-5.627,0-10.194-4.555-10.194-10.166
				S104.755,244.795,110.382,244.795"/>
			<text transform="matrix(1 0 0 1 110.189 257.4912)" font-family="'HelveticaNeue'" font-size="7.5867">type=&quot;stanza&quot;</text>
		</g>
		<g id="id1216_Graphic">
			<rect x="48.268" y="321.054" fill="#FFFFFF" width="45.521" height="28.449"/>
			
				<rect x="48.268" y="321.054" fill="none" stroke="#000000" stroke-width="2" stroke-linecap="round" stroke-linejoin="round" width="45.521" height="28.449"/>
			<text transform="matrix(1 0 0 1 69.9604 338.7578)" font-family="'HelveticaNeue-Medium'" font-size="8.8511">l</text>
		</g>
		<g id="id1220_Graphic">
			<rect x="117.733" y="321.054" fill="#FFFFFF" width="45.519" height="28.449"/>
			
				<rect x="117.733" y="321.054" fill="none" stroke="#000000" stroke-width="2" stroke-linecap="round" stroke-linejoin="round" width="45.519" height="28.449"/>
			<text transform="matrix(1 0 0 1 139.4258 338.7578)" font-family="'HelveticaNeue-Medium'" font-size="8.8511">l</text>
		</g>
		<g id="id1222_Graphic">
			<rect x="188.542" y="321.054" fill="#F92672" width="45.521" height="28.449"/>
			
				<rect x="188.542" y="321.054" fill="none" stroke="#000000" stroke-width="2" stroke-linecap="round" stroke-linejoin="round" width="45.521" height="28.449"/>
			<text transform="matrix(1 0 0 1 210.2344 338.7578)" font-family="'HelveticaNeue-Medium'" font-size="8.8511">l</text>
		</g>
		<g id="id1224_Graphic">
			<rect x="259.351" y="321.054" fill="#FFFFFF" width="45.521" height="28.449"/>
			
				<rect x="259.351" y="321.054" fill="none" stroke="#000000" stroke-width="2" stroke-linecap="round" stroke-linejoin="round" width="45.521" height="28.449"/>
			<text transform="matrix(1 0 0 1 281.0449 338.7578)" font-family="'HelveticaNeue-Medium'" font-size="8.8511">l</text>
		</g>
		<g id="id1234_Graphic">
			<rect x="328.815" y="321.054" fill="#FFFFFF" width="45.52" height="28.449"/>
			<path fill="none" stroke="#000000" stroke-linecap="round" stroke-linejoin="round" stroke-dasharray="4,4" d="M328.815,321.054
				h45.52v28.449h-45.52V321.054z"/>
			<text transform="matrix(1 0 0 1 335.0669 338.126)" font-family="'HelveticaNeue-Medium'" font-size="7.5867">comment</text>
		</g>
		<g id="id1214_Graphic">
			<path fill="#FFFFFF" d="M419.225,244.795h47.573c5.627,0,10.194,4.555,10.194,10.166s-4.567,10.166-10.194,10.166h-47.573
				c-5.627,0-10.191-4.555-10.191-10.166S413.598,244.795,419.225,244.795"/>
			<path fill="none" stroke="#000000" stroke-linecap="round" stroke-linejoin="round" d="M419.225,244.795h47.573
				c5.627,0,10.194,4.555,10.194,10.166s-4.567,10.166-10.194,10.166h-47.573c-5.627,0-10.191-4.555-10.191-10.166
				S413.598,244.795,419.225,244.795"/>
			<text transform="matrix(1 0 0 1 419.0312 257.4912)" font-family="'HelveticaNeue'" font-size="7.5867">type=&quot;stanza&quot;</text>
		</g>
		<g id="id1236_Graphic">
			<rect x="392.235" y="321.054" fill="#FFFFFF" width="45.52" height="28.449"/>
			
				<rect x="392.235" y="321.054" fill="none" stroke="#000000" stroke-width="2" stroke-linecap="round" stroke-linejoin="round" width="45.52" height="28.449"/>
			<text transform="matrix(1 0 0 1 413.9307 338.7578)" font-family="'HelveticaNeue-Medium'" font-size="8.8511">l</text>
		</g>
		<g id="id1238_Graphic">
			<rect x="459.686" y="321.054" fill="#FFFFFF" width="45.521" height="28.449"/>
			
				<rect x="459.686" y="321.054" fill="none" stroke="#000000" stroke-width="2" stroke-linecap="round" stroke-linejoin="round" width="45.521" height="28.449"/>
			<text transform="matrix(1 0 0 1 481.3799 338.7578)" font-family="'HelveticaNeue-Medium'" font-size="8.8511">l</text>
		</g>
		<g id="id1240_Graphic">
			<rect x="533.182" y="321.054" fill="#F92672" width="45.521" height="28.449"/>
			
				<rect x="533.182" y="321.054" fill="none" stroke="#000000" stroke-width="2" stroke-linecap="round" stroke-linejoin="round" width="45.521" height="28.449"/>
			<text transform="matrix(1 0 0 1 554.874 338.7578)" font-family="'HelveticaNeue-Medium'" font-size="8.8511">l</text>
		</g>
		<g id="id1242_Graphic">
			<rect x="606.675" y="321.054" fill="#FFFFFF" width="45.521" height="28.449"/>
			
				<rect x="606.675" y="321.054" fill="none" stroke="#000000" stroke-width="2" stroke-linecap="round" stroke-linejoin="round" width="45.521" height="28.449"/>
			<text transform="matrix(1 0 0 1 628.3701 338.7578)" font-family="'HelveticaNeue-Medium'" font-size="8.8511">l</text>
		</g>
		<g id="id1226_Graphic">
			<path fill="#FFFFFF" d="M26.646,372.693H58.51c3.769,0,6.828,4.556,6.828,10.165c0,5.607-3.059,10.167-6.828,10.167H26.646
				c-3.769,0-6.828-4.56-6.828-10.167C19.818,377.249,22.876,372.693,26.646,372.693"/>
			<path fill="none" stroke="#000000" stroke-linecap="round" stroke-linejoin="round" d="M26.646,372.693H58.51
				c3.769,0,6.828,4.556,6.828,10.165c0,5.607-3.059,10.167-6.828,10.167H26.646c-3.769,0-6.828-4.56-6.828-10.167
				C19.818,377.249,22.876,372.693,26.646,372.693"/>
			<text transform="matrix(1 0 0 1 32.8511 385.3906)" font-family="'HelveticaNeue'" font-size="7.5867">n=&quot;1&quot;</text>
		</g>
		<g id="id1228_Graphic">
			<path fill="#FFFFFF" d="M96.11,372.693h31.864c3.769,0,6.828,4.556,6.828,10.165c0,5.607-3.06,10.167-6.828,10.167H96.11
				c-3.769,0-6.829-4.56-6.829-10.167C89.282,377.249,92.341,372.693,96.11,372.693"/>
			<path fill="none" stroke="#000000" stroke-linecap="round" stroke-linejoin="round" d="M96.11,372.693h31.864
				c3.769,0,6.828,4.556,6.828,10.165c0,5.607-3.06,10.167-6.828,10.167H96.11c-3.769,0-6.829-4.56-6.829-10.167
				C89.282,377.249,92.341,372.693,96.11,372.693"/>
			<text transform="matrix(1 0 0 1 102.3164 385.3906)" font-family="'HelveticaNeue'" font-size="7.5867">n=&quot;2&quot;</text>
		</g>
		<g id="id1230_Graphic">
			<path fill="#FFFFFF" d="M166.919,372.693h31.864c3.77,0,6.829,4.556,6.829,10.165c0,5.607-3.06,10.167-6.829,10.167h-31.864
				c-3.768,0-6.828-4.56-6.828-10.167C160.091,377.249,163.151,372.693,166.919,372.693"/>
			<path fill="none" stroke="#000000" stroke-linecap="round" stroke-linejoin="round" d="M166.919,372.693h31.864
				c3.77,0,6.829,4.556,6.829,10.165c0,5.607-3.06,10.167-6.829,10.167h-31.864c-3.768,0-6.828-4.56-6.828-10.167
				C160.091,377.249,163.151,372.693,166.919,372.693"/>
			<text transform="matrix(1 0 0 1 173.125 385.3906)" font-family="'HelveticaNeue'" font-size="7.5867">n=&quot;3&quot;</text>
		</g>
		<g id="id1232_Graphic">
			<path fill="#FFFFFF" d="M237.729,372.693h31.864c3.769,0,6.828,4.556,6.828,10.165c0,5.607-3.06,10.167-6.828,10.167h-31.864
				c-3.77,0-6.828-4.56-6.828-10.167C230.9,377.249,233.959,372.693,237.729,372.693"/>
			<path fill="none" stroke="#000000" stroke-linecap="round" stroke-linejoin="round" d="M237.729,372.693h31.864
				c3.769,0,6.828,4.556,6.828,10.165c0,5.607-3.06,10.167-6.828,10.167h-31.864c-3.77,0-6.828-4.56-6.828-10.167
				C230.9,377.249,233.959,372.693,237.729,372.693"/>
			<text transform="matrix(1 0 0 1 243.9341 385.3906)" font-family="'HelveticaNeue'" font-size="7.5867">n=&quot;4&quot;</text>
		</g>
		<g id="id1246_Graphic">
			<path fill="#FFFFFF" d="M713.602,273.637h64.17c7.596,0,13.755,4.557,13.755,10.165c0,5.613-6.159,10.167-13.755,10.167h-64.17
				c-7.59,0-13.751-4.554-13.751-10.167C699.851,278.191,706.012,273.637,713.602,273.637"/>
			<path fill="none" stroke="#000000" stroke-linecap="round" stroke-linejoin="round" d="M713.602,273.637h64.17
				c7.596,0,13.755,4.557,13.755,10.165c0,5.613-6.159,10.167-13.755,10.167h-64.17c-7.59,0-13.751-4.554-13.751-10.167
				C699.851,278.191,706.012,273.637,713.602,273.637"/>
			<text transform="matrix(1 0 0 1 713.2725 286.332)" font-family="'HelveticaNeue'" font-size="7.5867">reason=&quot;sampling&quot;</text>
		</g>
		<g id="id1248_Graphic">
			<path fill="#FFFFFF" d="M370.613,369h31.864c3.771,0,6.828,4.556,6.828,10.167s-3.06,10.165-6.828,10.165h-31.864
				c-3.77,0-6.828-4.554-6.828-10.165S366.844,369,370.613,369"/>
			<path fill="none" stroke="#000000" stroke-linecap="round" stroke-linejoin="round" d="M370.613,369h31.864
				c3.771,0,6.828,4.556,6.828,10.167s-3.06,10.165-6.828,10.165h-31.864c-3.77,0-6.828-4.554-6.828-10.165S366.844,369,370.613,369
				"/>
			<text transform="matrix(1 0 0 1 376.8188 381.6973)" font-family="'HelveticaNeue'" font-size="7.5867">n=&quot;5&quot;</text>
		</g>
		<g id="id1250_Graphic">
			<path fill="#FFFFFF" d="M438.062,369h31.863c3.771,0,6.827,4.556,6.827,10.167s-3.061,10.165-6.827,10.165h-31.863
				c-3.771,0-6.825-4.554-6.825-10.165S434.294,369,438.062,369"/>
			<path fill="none" stroke="#000000" stroke-linecap="round" stroke-linejoin="round" d="M438.062,369h31.863
				c3.771,0,6.827,4.556,6.827,10.167s-3.061,10.165-6.827,10.165h-31.863c-3.771,0-6.825-4.554-6.825-10.165
				S434.294,369,438.062,369"/>
			<text transform="matrix(1 0 0 1 444.2686 381.6973)" font-family="'HelveticaNeue'" font-size="7.5867">n=&quot;6&quot;</text>
		</g>
		<g id="id1252_Graphic">
			<path fill="#FFFFFF" d="M511.559,369h31.865c3.771,0,6.827,4.556,6.827,10.167s-3.061,10.165-6.827,10.165h-31.865
				c-3.77,0-6.824-4.554-6.824-10.165S507.789,369,511.559,369"/>
			<path fill="none" stroke="#000000" stroke-linecap="round" stroke-linejoin="round" d="M511.559,369h31.865
				c3.771,0,6.827,4.556,6.827,10.167s-3.061,10.165-6.827,10.165h-31.865c-3.77,0-6.824-4.554-6.824-10.165
				S507.789,369,511.559,369"/>
			<text transform="matrix(1 0 0 1 517.7656 381.6973)" font-family="'HelveticaNeue'" font-size="7.5867">n=&quot;7&quot;</text>
		</g>
		<g id="id1254_Graphic">
			<path fill="#FFFFFF" d="M585.055,369h31.862c3.771,0,6.829,4.556,6.829,10.167s-3.062,10.165-6.829,10.165h-31.862
				c-3.77,0-6.83-4.554-6.83-10.165S581.285,369,585.055,369"/>
			<path fill="none" stroke="#000000" stroke-linecap="round" stroke-linejoin="round" d="M585.055,369h31.862
				c3.771,0,6.829,4.556,6.829,10.167s-3.062,10.165-6.829,10.165h-31.862c-3.77,0-6.83-4.554-6.83-10.165S581.285,369,585.055,369"
				/>
			<text transform="matrix(1 0 0 1 591.2617 381.6973)" font-family="'HelveticaNeue'" font-size="7.5867">n=&quot;8&quot;</text>
		</g>
	</g>
</g>
</svg>
