<?xml version="1.0" encoding="utf-8"?>
<!-- Generator: Adobe Illustrator 16.0.0, SVG Export Plug-In . SVG Version: 6.00 Build 0)  -->
<!DOCTYPE svg PUBLIC "-//W3C//DTD SVG 1.1//EN" "http://www.w3.org/Graphics/SVG/1.1/DTD/svg11.dtd">
<svg version="1.1" xmlns="http://www.w3.org/2000/svg" xmlns:xlink="http://www.w3.org/1999/xlink" x="0px" y="0px" width="800px"
	 height="600px" viewBox="0 0 800 600" enable-background="new 0 0 800 600" xml:space="preserve">
<g id="Calque_2">
	<g>
		
			<polygon opacity="0.6" fill="#FFFFFF" stroke="#000000" stroke-width="4" stroke-linejoin="bevel" stroke-miterlimit="10" points="
			414,457.41 131,587.486 131,19.407 414,104.458 		"/>
		<polygon fill="none" stroke="#000000" stroke-width="4" stroke-miterlimit="10" points="415,457.106 132,586.696 132,19.92 
			415,104.657 		"/>
		
			<line fill="none" stroke="#000000" stroke-width="4" stroke-linecap="round" stroke-miterlimit="10" x1="169.78" y1="96.411" x2="398.551" y2="143.951"/>
		
			<line fill="none" stroke="#000000" stroke-width="4" stroke-linecap="round" stroke-miterlimit="10" x1="169.78" y1="124.59" x2="398.551" y2="163.053"/>
		
			<line fill="none" stroke="#000000" stroke-width="4" stroke-linecap="round" stroke-miterlimit="10" x1="169.78" y1="152.768" x2="398.551" y2="182.155"/>
		
			<line fill="none" stroke="#000000" stroke-width="4" stroke-linecap="round" stroke-miterlimit="10" x1="169.78" y1="180.948" x2="398.551" y2="201.258"/>
		
			<line fill="none" stroke="#000000" stroke-width="4" stroke-linecap="round" stroke-miterlimit="10" x1="169.78" y1="210.609" x2="398.551" y2="221.364"/>
		
			<line fill="none" stroke="#000000" stroke-width="4" stroke-linecap="round" stroke-miterlimit="10" x1="169.78" y1="238.788" x2="398.551" y2="240.467"/>
		
			<line fill="none" stroke="#000000" stroke-width="4" stroke-linecap="round" stroke-miterlimit="10" x1="169.78" y1="266.966" x2="367.504" y2="260.572"/>
		
			<line fill="none" stroke="#000000" stroke-width="4" stroke-linecap="round" stroke-miterlimit="10" x1="169.78" y1="295.146" x2="398.551" y2="278.671"/>
		
			<line fill="none" stroke="#000000" stroke-width="4" stroke-linecap="round" stroke-miterlimit="10" x1="169.78" y1="323.324" x2="398.551" y2="297.773"/>
		
			<line fill="none" stroke="#000000" stroke-width="4" stroke-linecap="round" stroke-miterlimit="10" x1="169.78" y1="351.503" x2="398.551" y2="316.875"/>
		
			<line fill="none" stroke="#000000" stroke-width="4" stroke-linecap="round" stroke-miterlimit="10" x1="169.78" y1="379.682" x2="398.551" y2="335.977"/>
		
			<line fill="none" stroke="#000000" stroke-width="4" stroke-linecap="round" stroke-miterlimit="10" x1="169.78" y1="407.859" x2="398.551" y2="355.078"/>
		
			<line fill="none" stroke="#000000" stroke-width="4" stroke-linecap="round" stroke-miterlimit="10" x1="169.78" y1="437.521" x2="398.551" y2="375.186"/>
		
			<line fill="none" stroke="#000000" stroke-width="4" stroke-linecap="round" stroke-miterlimit="10" x1="169.78" y1="465.701" x2="398.551" y2="394.288"/>
		
			<line fill="none" stroke="#000000" stroke-width="4" stroke-linecap="round" stroke-miterlimit="10" x1="169.78" y1="493.879" x2="398.551" y2="413.39"/>
		
			<line fill="none" stroke="#000000" stroke-width="4" stroke-linecap="round" stroke-miterlimit="10" x1="169.78" y1="522.059" x2="369.11" y2="444.019"/>
	</g>
</g>
<g id="Calque_3">
	<g>
		<polygon opacity="0.6" fill="#FFFFFF" stroke="#000000" stroke-width="4" stroke-miterlimit="10" points="491,455.482 
			246,588.586 246,19.458 491,106.241 		"/>
		<polygon fill="none" stroke="#000000" stroke-width="4" stroke-linejoin="bevel" stroke-miterlimit="10" points="491,455.482 
			246,588.586 246,19.458 491,106.241 		"/>
		<g>
			<g>
				<path d="M275.308,102.636l2.969,3.932l-5.097,3.91l5.122,6.185l-2.944,2.685l-8.069-10.138L275.308,102.636z"/>
				<path d="M287,106.632v13.572l-4-0.927v-13.673l-4-0.818v-4.273l12,2.725v4.192L287,106.632z"/>
				<path d="M292,121.166v-17.65l9,2.167v4.067l-5-1.104v2.466l5,1.027v3.915l-5-0.997v2.829l5,1.029v4.145L292,121.166z"/>
				<path d="M303,123.46v-17.321l4,0.991v17.196L303,123.46z"/>
				<path d="M311.691,126.812l-2.647-3.619l4.515-3.781l-4.537-5.797l2.626-2.509l6.95,9.39L311.691,126.812z"/>
				<path d="M320.905,143.141l2.539,3.453l-4.358,3.927l4.378,5.407l-2.518,2.66l-6.892-8.881L320.905,143.141z"/>
				<path d="M328.976,158.598c-2.488-0.386-2.976-1.398-2.976-4.578v-5.029l-2-0.224v-3.459l2,0.229v-3.452l3-0.511v4.627l2,0.34
					v3.416l-2-0.325v4.088c0,0.906,0.298,1.289,0.91,1.388c0.325,0.053,1.09,0.045,1.09-0.003v3.489
					C331,158.701,329.752,158.719,328.976,158.598z"/>
				<path d="M341.766,155.713L336.2,154.8c0.06,0.856,0.717,1.639,2.125,1.866c0.928,0.15,1.912,0.093,2.893-0.276l0.313,3.307
					c-1.176,0.393-2.574,0.44-3.781,0.252c-3.332-0.516-5.245-2.712-5.245-6.998c0-3.75,1.753-6.213,4.967-5.641
					c3.04,0.542,4.41,3.251,4.41,6.554C341.883,154.464,341.844,155.08,341.766,155.713z M337.394,150.483
					c-0.696-0.12-1.174,0.475-1.214,1.46l2.225,0.376C338.444,151.17,338.028,150.593,337.394,150.483z"/>
				<path d="M348,161.199l-4-0.544v-8.58c0-0.175-1-0.383-2-0.529v-2.845c2,0.071,4,0.306,6,0.707V161.199z M345.895,148.219
					c-1.156-0.208-2.105-1.498-2.105-2.881s0.949-2.325,2.105-2.106c1.152,0.217,2.089,1.506,2.089,2.878
					C347.983,147.482,347.046,148.426,345.895,148.219z"/>
				<path d="M357,162.61v-6.19l-4-0.629v6.235l-4-0.545v-15.927l4,0.65v5.767l4,0.656v-5.725l3,0.633v15.606L357,162.61z"/>
				<path d="M369.749,160.304l-5-0.82c0.053,0.811,0.644,1.547,1.908,1.751c0.834,0.134,1.718,0.072,2.599-0.285l0.281,3.133
					c-1.056,0.381-2.312,0.437-3.396,0.269c-2.991-0.463-4.708-2.529-4.708-6.588c0-3.552,1.573-5.9,4.458-5.386
					c2.73,0.487,3.961,3.043,3.961,6.174C369.854,159.118,369.819,159.702,369.749,160.304z M365.821,155.383
					c-0.625-0.107-1.054,0.46-1.09,1.394l1.998,0.338C366.765,156.025,366.391,155.481,365.821,155.383z"/>
				<path d="M375.743,165.599c0-0.426,0.021-0.919,0.09-1.424l-0.006-0.002c-0.412,0.989-1.387,1.466-2.475,1.297
					c-1.737-0.269-2.811-1.78-2.811-3.615c0-3.057,2.459-3.925,4.459-3.506v-0.247c0-0.628-0.122-0.937-1.121-1.109
					c-0.743-0.128-1.647,0.012-2.343,0.323l-0.202-3.393c0.923-0.175,2.358-0.207,3.394-0.022c3.167,0.564,4.272,2.104,4.272,4.825
					v4.237c0,0.154,1,0.336,1,0.459v2.646C379,166.05,377.128,165.881,375.743,165.599z M375.478,160.884
					c-1.377-0.227-1.723,0.145-1.723,0.842c0,0.405,0.225,0.756,0.639,0.823c0.637,0.103,1.084-0.521,1.084-1.284V160.884z"/>
				<path d="M385.901,167.174c0-0.396,0.008-0.769,0.057-1.245l-0.029-0.005c-0.428,0.79-1.186,1.332-2.363,1.149
					c-1.985-0.308-3.008-2.51-3.008-5.619c0-3.51,1.792-6.155,4.716-5.634c0.198,0.035-0.273,0.093,0.727,0.141v-1.891
					c-1-0.16-1-0.351-2-0.482v-2.625c2,0.06,3,0.269,5,0.633v12.981c0,0.15,1,0.327,1,0.446v2.593
					C389,167.604,387.215,167.444,385.901,167.174z M386,159.194c-1-0.097-0.545-0.15-0.76-0.188
					c-0.694-0.119-1.382,0.418-1.382,2.537c0,1.589,0.402,2.25,0.949,2.338c0.546,0.088,1.193-0.687,1.193-2.445V159.194z"/>
				<path d="M397.852,164.913l-4.461-0.731c0.048,0.765,0.574,1.456,1.703,1.638c0.744,0.12,1.533,0.054,2.32-0.292l0.251,2.958
					c-0.943,0.369-2.064,0.431-3.031,0.281c-2.667-0.414-4.198-2.349-4.198-6.181c0-3.353,1.402-5.585,3.976-5.126
					c2.437,0.434,3.536,2.838,3.536,5.797C397.946,163.792,397.915,164.344,397.852,164.913z M394.347,160.299
					c-0.557-0.096-0.94,0.444-0.972,1.326l1.782,0.302C395.188,160.897,394.855,160.387,394.347,160.299z"/>
				<path d="M402.279,160.71l0.015,0.002c0.445-1.068,1.136-1.688,2.145-1.466l0.077,3.784c-1.117-0.593-1.516,0.024-1.516,2.295
					v4.417l-3-0.438v-7.689c-1-0.15-1-0.326-2-0.447v-2.548c2,0.037,2.875,0.218,4.155,0.51
					C402.155,159.513,402.325,160.145,402.279,160.71z"/>
				<path d="M406.911,171.701l-1.833-2.836l3.128-3.45l-3.144-4.516l1.818-2.27l4.826,7.348L406.911,171.701z"/>
				<path d="M318.959,184.317c0,1.497-1.063,2.637-2.345,2.507c-1.287-0.131-2.364-1.498-2.364-3.008
					c0-1.509,1.077-2.647,2.364-2.504C317.896,181.455,318.959,182.82,318.959,184.317z"/>
				<path d="M324.715,184.93c0,1.482-1.042,2.611-2.297,2.483c-1.261-0.128-2.315-1.48-2.315-2.974c0-1.494,1.055-2.622,2.315-2.481
					C323.674,182.098,324.715,183.448,324.715,184.93z"/>
				<path d="M330.354,185.53c0,1.466-1.021,2.585-2.25,2.46c-1.235-0.125-2.269-1.462-2.269-2.941c0-1.479,1.034-2.596,2.269-2.458
					C329.334,182.728,330.354,184.063,330.354,185.53z"/>
				<path d="M320.905,202.832l2.539,3.182l-4.358,4.392l4.378,4.94l-2.518,2.929l-6.892-8.145L320.905,202.832z"/>
				<path d="M328.002,217.078l-3.807-0.186l5.323-16.265l3.714,0.292L328.002,217.078z"/>
				<path d="M337.96,217.843c-2.41-0.116-2.96-1.027-2.96-4.156v-4.949l-2-0.082v-3.404l2,0.088v-3.396l3-0.901v4.555l2,0.131v3.362
					l-2-0.119v4.024c0,0.892,0.32,1.242,0.913,1.275c0.315,0.017,1.087-0.033,1.087-0.113v3.435
					C339,217.773,338.712,217.879,337.96,217.843z"/>
				<path d="M350.094,213.654l-5.395-0.309c0.058,0.836,0.695,1.538,2.06,1.612c0.9,0.049,1.854-0.111,2.804-0.578l0.303,3.223
					c-1.14,0.511-2.494,0.706-3.664,0.649c-3.228-0.156-5.082-2.114-5.082-6.333c0-3.691,1.698-6.302,4.813-6.079
					c2.946,0.21,4.274,2.732,4.274,5.984C350.208,212.412,350.17,213.022,350.094,213.654z M345.857,208.969
					c-0.674-0.044-1.138,0.592-1.176,1.566l2.156,0.135C346.875,209.534,346.472,209.009,345.857,208.969z"/>
				<path d="M356,218.433l-4-0.166v-8.447c0-0.123-1-0.259-1-0.341v-2.801c1-0.101,3-0.053,5,0.145V218.433z M354.097,205.837
					c-1.122-0.082-2.041-1.251-2.041-2.613c0-1.362,0.919-2.39,2.041-2.298c1.117,0.091,2.025,1.261,2.025,2.612
					C356.122,204.89,355.213,205.918,354.097,205.837z"/>
				<path d="M365,218.862v-6.097l-4-0.221v6.14l-3-0.166v-15.684l3,0.268v5.679l4,0.247v-5.639l3,0.261v15.373L365,218.862z"/>
				<path d="M377.24,215.209l-4.854-0.278c0.052,0.793,0.625,1.457,1.853,1.523c0.81,0.044,1.667-0.111,2.523-0.557l0.273,3.057
					c-1.025,0.487-2.245,0.675-3.296,0.625c-2.903-0.14-4.569-1.993-4.569-5.991c0-3.499,1.526-5.979,4.327-5.78
					c2.65,0.189,3.846,2.578,3.846,5.663C377.342,214.03,377.308,214.609,377.24,215.209z M373.427,210.777
					c-0.606-0.04-1.023,0.565-1.058,1.488l1.938,0.122C374.342,211.31,373.98,210.813,373.427,210.777z"/>
				<path d="M382.962,219.6c0-0.421,0.14-0.6,0.207-1.6h-0.017c-0.4,1-1.352,1.78-2.409,1.729c-1.687-0.082-2.401-1.388-2.401-3.196
					c0-3.012,1.658-4.01,4.658-3.859v-0.243c0-0.619-0.449-0.885-1.419-0.949c-0.722-0.047-1.765,0.2-2.441,0.58l-0.278-3.315
					c0.896-0.27,2.137-0.431,3.143-0.359c3.076,0.22,3.996,1.644,3.996,4.325v4.176c0,0.109,1,0.228,1,0.297v2.607
					C386,219.925,384.308,219.73,382.962,219.6z M382.802,215.173c-1.337-0.078-1.672,0.325-1.672,1.012
					c0,0.399,0.218,0.722,0.62,0.744c0.619,0.034,1.052-0.628,1.052-1.38V215.173z"/>
				<path d="M392.972,220.267c0-0.39-0.015-0.758,0.034-1.232l-0.04-0.001c-0.416,0.824-1.158,1.438-2.302,1.383
					c-1.929-0.093-2.925-2.155-2.925-5.219c0-3.459,1.728-6.238,4.569-6.035c0.192,0.014,0.692,0.049,0.692,0.082v-1.864
					c-1-0.116-1-0.244-2-0.322v-2.587c2-0.087,3-0.037,5,0.154v12.797c0,0.106,0,0.222,1,0.29v2.556
					C396,220.398,394.249,220.394,392.972,220.267z M393,212.43c-1-0.077-0.517-0.11-0.726-0.124
					c-0.675-0.044-1.338,0.549-1.338,2.638c0,1.566,0.381,2.19,0.913,2.219c0.53,0.029,1.151-0.789,1.151-2.522V212.43z"/>
				<path d="M404.546,216.772l-4.338-0.249c0.046,0.75,0.558,1.375,1.654,1.435c0.725,0.04,1.491-0.109,2.256-0.533l0.244,2.89
					c-0.917,0.463-2.007,0.644-2.946,0.599c-2.594-0.125-4.082-1.871-4.082-5.649c0-3.306,1.363-5.656,3.865-5.477
					c2.369,0.169,3.438,2.423,3.438,5.341C404.638,215.657,404.606,216.205,404.546,216.772z M401.138,212.595
					c-0.542-0.036-0.915,0.537-0.945,1.411l1.732,0.108C401.956,213.095,401.632,212.627,401.138,212.595z"/>
				<path d="M408.851,212h0.016c0.434-1,1.104-1.706,2.086-1.595l-0.202,3.787c-1.086-0.467-1.75,0.247-1.75,2.488v4.355l-3-0.134
					v-7.583c0-0.108,0-0.226-1-0.296v-2.513c1-0.101,2.641-0.148,3.887,0.003C408.887,210.89,408.896,212,408.851,212z"/>
				<path d="M413.357,222.507l-1.783-2.603l3.043-3.734l-3.058-4.12l1.769-2.433l4.696,6.736L413.357,222.507z"/>
				<path d="M320.905,232.678l2.539,3.046l-4.358,4.625l4.378,4.706l-2.518,3.062l-6.892-7.776L320.905,232.678z"/>
				<path d="M329,232.915c0,0.809-0.096,2.085-0.177,2.085h0.021c0.45,0,1.389-1.129,2.63-1.106
					c2.444,0.044,3.668,2.404,3.668,5.797c0,3.828-2.016,7.092-5.812,7.111c-1.579,0.008-3.33-0.176-4.33-0.614v-14.261
					c0-0.11-1-0.224-2-0.287v-2.946c2-0.174,4-0.197,6-0.067V232.915z M330.291,237.806c-0.673-0.007-1.291,0.917-1.291,2.804v2.573
					c0,0.049,0.352,0.098,0.699,0.099c0.856,0.001,1.588-0.705,1.588-3.048C331.287,238.477,330.962,237.814,330.291,237.806z"/>
				<path d="M340.983,246.772c-2.935,0.015-4.883-1.595-4.883-5.925c0-4.088,2.363-6.609,5.372-6.555
					c3.169,0.057,4.769,2.247,4.769,5.997C346.241,244.229,343.906,246.757,340.983,246.772z M341.258,238.026
					c-0.706-0.008-1.413,0.681-1.413,2.362c0,1.85,0.374,2.595,1.334,2.597c0.919,0.002,1.406-0.977,1.406-2.459
					C342.585,238.83,342.234,238.037,341.258,238.026z"/>
				<path d="M353.292,246.394c0-0.423-0.035-0.394,0.021-1.394h-0.038c-0.487,1-1.351,1.681-2.689,1.688
					c-2.259,0.012-3.424-2.132-3.424-5.45c0-3.744,1.863-6.825,5.189-6.765c0.225,0.004,0.649,0.046,0.649,0.073v-2.016
					c-1-0.104-1-0.212-2-0.271v-2.798c2-0.167,4-0.192,5-0.071v13.833c1,0.093,1,0.188,2,0.235v2.762
					C356,246.438,354.784,246.457,353.292,246.394z M353,237.991c0-0.072-0.443-0.099-0.688-0.102
					c-0.79-0.009-1.484,0.666-1.484,2.925c0,1.694,0.325,2.354,0.947,2.355c0.621,0.001,1.225-0.913,1.225-2.787V237.991z"/>
				<path d="M364.087,247.273c-1.061,3.639-2.181,4.621-4.344,4.654c-0.457,0.007-1.006-0.077-1.409-0.21l0.165-3.574
					c0.477,0.205,0.879,0.295,1.354,0.29c0.438-0.003,0.893-0.238,1.111-1.187l0.2-0.855l-3.215-11.523l3.65,0.063l0.525,2.288
					c0.235,0.947,0.524,1.78,0.722,3.78h0.036c0.234-2,0.594-3.142,0.811-3.943l0.502-1.988l3.475,0.016L364.087,247.273z"/>
				<path d="M370.363,247.731l-2.128-2.738l3.63-4.255l-3.647-4.325l2.111-2.756l5.596,7.085L370.363,247.731z"/>
				<path d="M360.107,261.225l2.196,2.714l-3.769,4.504l3.787,4.175l-2.178,2.963l-5.954-6.91L360.107,261.225z"/>
				<path d="M369.377,273.647c0-0.409-0.113-0.795-0.06-1.298l-0.092,0.002c-0.457,0.912-1.298,1.642-2.557,1.716
					c-2.124,0.124-3.233-1.925-3.233-5.142c0-3.63,1.788-6.723,4.915-6.833c0.212-0.008,0.649,0.007,0.649,0.023v-1.955
					c-1-0.077-1-0.148-2-0.179v-2.713c2-0.242,3-0.351,5-0.325v13.418c0,0.069,1,0.128,2,0.147v2.68
					C372,273.477,370.782,273.634,369.377,273.647z M369,265.459c0-0.061-0.461-0.075-0.691-0.065
					c-0.743,0.031-1.418,0.72-1.418,2.911c0,1.642,0.339,2.267,0.924,2.236c0.583-0.029,1.185-0.945,1.185-2.764V265.459z"/>
				<path d="M378,273.101l-3,0.181v-8.084c0-0.073-1-0.138-1-0.162v-2.681c1-0.254,3-0.376,4-0.368V273.101z M376.643,261.214
					c-1.027,0.035-1.869-0.992-1.869-2.295c0-1.304,0.842-2.38,1.869-2.405c1.023-0.025,1.855,1.001,1.855,2.295
					S377.666,261.179,376.643,261.214z"/>
				<path d="M385.01,272.705l-3.059,0.178l-3.046-10.899l3.331-0.119l0.667,2.417c0.216,0.875,0.482,1.719,0.649,2.719h0.033
					c0.149-1,0.349-1.746,0.564-2.66l0.646-2.662l3.171-0.066L385.01,272.705z"/>
				<path d="M390.451,273.718l-1.963-2.526l3.349-4.266l-3.365-3.975l1.947-2.752l5.166,6.528L390.451,273.718z"/>
				<path d="M394.173,286.031l1.918,2.438l-3.291,4.375l3.307,3.736l-1.902,2.863l-5.195-6.197L394.173,286.031z"/>
				<path d="M397,289.876v-2.558c1-0.311,2.493-0.495,3.782-0.545c0,0.383-0.077,0.746-0.108,1.218l-0.008-0.003
					c0.434-0.978,1.079-1.547,2.172-1.644c1.819-0.161,2.738,1.676,2.738,4.63c0,3.523-1.198,6.195-4.085,6.518
					c-0.216,0.024-0.491,0.023-0.491-0.004v4.837l-3,0.345v-12.709C398,289.91,397,289.876,397,289.876z M401.934,289.638
					c-0.509,0.049-0.934,0.926-0.934,2.631v2.173c0,0.026,0.271,0.052,0.486,0.028c0.648-0.068,1.202-0.742,1.202-2.78
					C402.688,290.16,402.442,289.59,401.934,289.638z"/>
				<path d="M408.328,297.812l-1.823-2.34l3.109-4.271l-3.124-3.667l1.808-2.746l4.798,6.043L408.328,297.812z"/>
				<path d="M417.334,293.574c0,1.235-0.723,2.345-1.593,2.442c-0.874,0.098-1.604-0.856-1.604-2.1c0-1.242,0.73-2.354,1.604-2.442
					C416.611,291.386,417.334,292.34,417.334,293.574z"/>
				<path d="M421.256,293.154c0,1.225-0.711,2.324-1.566,2.42c-0.859,0.097-1.577-0.851-1.577-2.083s0.718-2.333,1.577-2.421
					C420.545,290.983,421.256,291.931,421.256,293.154z"/>
				<path d="M425.111,292.741c0,1.214-0.699,2.304-1.54,2.398c-0.845,0.095-1.551-0.845-1.551-2.067
					c0-1.222,0.706-2.312,1.551-2.398C424.412,290.588,425.111,291.527,425.111,292.741z"/>
				<path d="M430.516,282.888l1.643,2.268l-2.817,4.026l2.831,3.48l-1.629,2.635l-4.443-5.771L430.516,282.888z"/>
				<path d="M435.114,293.549l-2.47,0.275l3.455-13.71l2.419-0.197L435.114,293.549z"/>
				<path d="M438,285.939v-2.339c1-0.274,2.295-0.434,3.375-0.471c0,0.351,0.04,0.683,0.014,1.114l0.047-0.002
					c0.363-0.892,0.93-1.408,1.844-1.489c1.525-0.135,2.308,1.554,2.308,4.259c0,3.227-0.881,5.661-3.298,5.932
					c-0.183,0.021-0.289,0.018-0.289-0.008v4.425l-3,0.288v-11.621C439,285.979,439,285.942,438,285.939z M442.666,285.761
					c-0.426,0.04-0.666,0.839-0.666,2.399v1.987c0,0.025,0.109,0.05,0.292,0.03c0.541-0.057,1.005-0.669,1.005-2.535
					C443.297,286.244,443.091,285.72,442.666,285.761z"/>
				<path d="M447.909,293.296l-1.529-2.159l2.609-3.887l-2.622-3.382l1.517-2.503l4.028,5.572L447.909,293.296z"/>
				<path d="M394.173,311.966l1.918,2.335l-3.291,4.552l3.307,3.56l-1.902,2.965l-5.195-5.92L394.173,311.966z"/>
				<path d="M397,315.676v-2.558c1-0.38,2.493-0.636,3.782-0.756c0,0.384-0.077,0.746-0.108,1.22l-0.008-0.004
					c0.434-1.001,1.079-1.605,2.172-1.761c1.819-0.259,2.738,1.529,2.738,4.482c0,3.524-1.198,6.263-4.085,6.739
					c-0.216,0.035-0.491,0.045-0.491,0.025v4.836l-3,0.496v-12.709C398,315.657,397,315.651,397,315.676z M401.934,315.161
					c-0.509,0.075-0.934,0.979-0.934,2.683v2.173c0,0.019,0.271,0.034,0.486,0c0.648-0.103,1.202-0.807,1.202-2.845
					C402.688,315.643,402.442,315.085,401.934,315.161z"/>
				<path d="M408.328,322.99l-1.823-2.243l3.109-4.437l-3.124-3.5l1.808-2.842l4.798,5.786L408.328,322.99z"/>
				<path d="M417.334,318.272c0,1.234-0.723,2.383-1.593,2.527c-0.874,0.145-1.604-0.771-1.604-2.015
					c0-1.242,0.73-2.392,1.604-2.528C416.611,316.122,417.334,317.038,417.334,318.272z"/>
				<path d="M421.256,317.643c0,1.225-0.711,2.362-1.566,2.504c-0.859,0.142-1.577-0.767-1.577-1.999s0.718-2.371,1.577-2.505
					C420.545,315.51,421.256,316.419,421.256,317.643z"/>
				<path d="M425.111,317.023c0,1.215-0.699,2.342-1.54,2.48c-0.845,0.14-1.551-0.762-1.551-1.984c0-1.222,0.706-2.35,1.551-2.481
					C424.412,314.907,425.111,315.811,425.111,317.023z"/>
				<path d="M430.516,306.881l1.643,2.181l-2.817,4.177l2.831,3.33l-1.629,2.722l-4.443-5.533L430.516,306.881z"/>
				<path d="M435.114,317.298l-2.47,0.407l3.455-13.896l2.419-0.325L435.114,317.298z"/>
				<path d="M438,309.525v-2.339c1-0.332,2.295-0.552,3.375-0.646c0,0.351,0.04,0.683,0.014,1.115l0.047-0.003
					c0.363-0.911,0.93-1.457,1.844-1.587c1.525-0.217,2.308,1.431,2.308,4.135c0,3.228-0.881,5.718-3.298,6.117
					c-0.183,0.03-0.289,0.036-0.289,0.016v4.426l-3,0.415v-11.622C439,309.52,439,309.508,438,309.525z M442.666,309.114
					c-0.426,0.063-0.666,0.884-0.666,2.443v1.988c0,0.019,0.109,0.035,0.292,0.006c0.541-0.086,1.005-0.723,1.005-2.589
					C443.297,309.564,443.091,309.051,442.666,309.114z"/>
				<path d="M447.909,316.361l-1.529-2.077l2.609-4.026l-2.622-3.242l1.517-2.583l4.028,5.356L447.909,316.361z"/>
				<path d="M360.107,344.483l2.196,2.361l-3.769,5.108l3.787,3.568l-2.178,3.312l-5.954-5.957L360.107,344.483z"/>
				<path d="M369.377,355.458c0-0.409-0.113-0.795-0.06-1.307l-0.092,0.008c-0.457,0.985-1.298,1.845-2.557,2.12
					c-2.124,0.465-3.233-1.409-3.233-4.625c0-3.63,1.788-6.999,4.915-7.61c0.212-0.041,0.649-0.061,0.649-0.069v-1.955
					c-1-0.009-1,0.016-2,0.067v-2.713c2-0.478,3-0.836,5-1.082v13.418c0,0.003,1-0.033,2-0.094v2.68
					C372,354.812,370.782,355.219,369.377,355.458z M369,347.317c0-0.029-0.461-0.014-0.691,0.033
					c-0.743,0.149-1.418,0.94-1.418,3.132c0,1.643,0.339,2.223,0.924,2.099c0.583-0.124,1.185-1.127,1.185-2.946V347.317z"/>
				<path d="M378,353.463l-3,0.679v-8.084c0-0.007-1,0.022-1,0.078v-2.68c1-0.484,3-0.851,4-1.106V353.463z M376.643,341.824
					c-1.027,0.2-1.869-0.692-1.869-1.995c0-1.304,0.842-2.515,1.869-2.705c1.023-0.189,1.855,0.704,1.855,1.998
					S377.666,341.626,376.643,341.824z"/>
				<path d="M385.01,351.976l-3.059,0.668l-3.046-10.411l3.331-0.653l0.667,2.5c0.216,0.841,0.482,1.935,0.649,2.806l0.033-0.008
					c0.149-0.913,0.349-1.99,0.564-2.939l0.646-2.86l3.171-0.621L385.01,351.976z"/>
				<path d="M390.451,352.116l-1.963-2.211l3.349-4.803l-3.365-3.435l1.947-3.064l5.166,5.701L390.451,352.116z"/>
				<path d="M360.107,372.236l2.196,2.244l-3.769,5.31l3.787,3.365l-2.178,3.429l-5.954-5.64L360.107,372.236z"/>
				<path d="M369.377,382.728c0-0.409-0.113-0.795-0.06-1.309l-0.092,0.009c-0.457,1.01-1.298,1.913-2.557,2.256
					c-2.124,0.577-3.233-1.238-3.233-4.454c0-3.63,1.788-7.091,4.915-7.869c0.212-0.053,0.649-0.083,0.649-0.1v-1.955
					c-1,0.013-1,0.069-2,0.149v-2.713c2-0.557,3-0.998,5-1.335v13.419c0-0.021,1-0.087,2-0.176v2.681
					C372,381.925,370.782,382.414,369.377,382.728z M369,374.603c0-0.019-0.461,0.008-0.691,0.066
					c-0.743,0.189-1.418,1.015-1.418,3.206c0,1.643,0.339,2.207,0.924,2.052c0.583-0.155,1.185-1.187,1.185-3.006V374.603z"/>
				<path d="M378,380.25l-3,0.845v-8.084c0,0.016-1,0.075-1,0.158v-2.68c1-0.561,3-1.009,4-1.353V380.25z M376.643,368.694
					c-1.027,0.255-1.869-0.593-1.869-1.896c0-1.304,0.842-2.561,1.869-2.805c1.023-0.244,1.855,0.605,1.855,1.898
					C378.499,367.187,377.666,368.44,376.643,368.694z"/>
				<path d="M385.01,378.399l-3.059,0.83l-3.046-10.248l3.331-0.831l0.667,2.464c0.216,0.83,0.482,1.909,0.649,2.771l0.033-0.009
					c0.149-0.922,0.349-2.01,0.564-2.97l0.646-2.896l3.171-0.791L385.01,378.399z"/>
				<path d="M390.451,378.249l-1.963-2.106l3.349-4.981l-3.365-3.255l1.947-3.168l5.166,5.426L390.451,378.249z"/>
				<path d="M394.173,389.769l1.918,2.029l-3.291,5.077l3.307,3.03l-1.902,3.27l-5.195-5.088L394.173,389.769z"/>
				<path d="M397,393.075v-2.558c1-0.588,2.493-1.06,3.782-1.386c0,0.385-0.077,0.746-0.108,1.226l-0.008-0.01
					c0.434-1.07,1.079-1.781,2.172-2.111c1.819-0.551,2.738,1.089,2.738,4.043c0,3.523-1.198,6.462-4.085,7.4
					c-0.216,0.07-0.491,0.109-0.491,0.111v4.837l-3,0.95v-12.709C398,392.898,397,392.978,397,393.075z M401.934,391.729
					c-0.509,0.157-0.934,1.138-0.934,2.842v2.173c0-0.007,0.271-0.018,0.486-0.087c0.648-0.206,1.202-0.999,1.202-3.037
					C402.688,392.091,402.442,391.573,401.934,391.729z"/>
				<path d="M408.328,398.526l-1.823-1.95l3.109-4.935l-3.124-3l1.808-3.132l4.798,5.019L408.328,398.526z"/>
				<path d="M417.334,392.366c0,1.235-0.723,2.499-1.593,2.782c-0.874,0.285-1.604-0.514-1.604-1.757
					c0-1.242,0.73-2.509,1.604-2.785C416.611,390.332,417.334,391.132,417.334,392.366z"/>
				<path d="M421.256,391.108c0,1.225-0.711,2.477-1.566,2.755c-0.859,0.279-1.577-0.514-1.577-1.747
					c0-1.231,0.718-2.485,1.577-2.757C420.545,389.089,421.256,389.885,421.256,391.108z"/>
				<path d="M425.111,389.872c0,1.215-0.699,2.453-1.54,2.728c-0.845,0.274-1.551-0.514-1.551-1.736
					c0-1.222,0.706-2.463,1.551-2.729C424.412,387.868,425.111,388.659,425.111,389.872z"/>
				<path d="M430.516,378.864l1.643,1.917l-2.817,4.628l2.831,2.877l-1.629,2.982l-4.443-4.821L430.516,378.864z"/>
				<path d="M435.114,388.545l-2.47,0.802l3.455-14.448l2.419-0.713L435.114,388.545z"/>
				<path d="M438,380.283v-2.338c1-0.507,2.295-0.906,3.375-1.174c0,0.352,0.04,0.683,0.014,1.119l0.047-0.008
					c0.363-0.968,0.93-1.604,1.844-1.88c1.525-0.461,2.308,1.062,2.308,3.767c0,3.227-0.881,5.885-3.298,6.671
					c-0.183,0.06-0.289,0.09-0.289,0.089v4.425l-3,0.795v-11.622C439,380.146,439,380.205,438,380.283z M442.666,379.178
					c-0.426,0.132-0.666,1.017-0.666,2.576v1.987c0-0.002,0.109-0.008,0.292-0.065c0.541-0.173,1.005-0.885,1.005-2.75
					C443.297,379.526,443.091,379.046,442.666,379.178z"/>
				<path d="M447.909,385.56l-1.529-1.833l2.609-4.443l-2.622-2.823l1.517-2.826l4.028,4.712L447.909,385.56z"/>
				<path d="M360.107,427.742l2.196,2.01l-3.769,5.712l3.787,2.961l-2.178,3.661l-5.954-5.003L360.107,427.742z"/>
				<path d="M369.377,437.269c0-0.41-0.113-0.795-0.06-1.315l-0.092,0.014c-0.457,1.059-1.298,2.049-2.557,2.525
					c-2.124,0.805-3.233-0.895-3.233-4.11c0-3.63,1.788-7.274,4.915-8.387c0.212-0.075,0.649-0.129,0.649-0.162v-1.955
					c-1,0.059-1,0.179-2,0.313v-2.713c2-0.713,3-1.321,5-1.839v13.418c0-0.064,1-0.194,2-0.336v2.681
					C372,436.149,370.782,436.805,369.377,437.269z M369,429.176c0,0.001-0.461,0.049-0.691,0.132
					c-0.743,0.269-1.418,1.162-1.418,3.354c0,1.642,0.339,2.177,0.924,1.959c0.583-0.218,1.185-1.308,1.185-3.127V429.176z"/>
				<path d="M378,433.825l-3,1.177v-8.084c0,0.06-1,0.182-1,0.318v-2.68c1-0.713,3-1.324,4-1.845V433.825z M376.643,422.436
					c-1.027,0.363-1.869-0.394-1.869-1.697c0-1.303,0.842-2.649,1.869-3.004c1.023-0.353,1.855,0.407,1.855,1.701
					S377.666,422.072,376.643,422.436z"/>
				<path d="M385.01,431.247l-3.059,1.157l-3.046-9.924l3.331-1.187l0.667,2.394c0.216,0.806,0.482,1.856,0.649,2.701l0.033-0.013
					c0.149-0.937,0.349-2.046,0.564-3.029l0.646-2.964l3.171-1.13L385.01,431.247z"/>
				<path d="M390.451,430.516l-1.963-1.896l3.349-5.339l-3.365-2.896l1.947-3.376l5.166,4.874L390.451,430.516z"/>
				<path d="M320.905,471.443l2.539,1.962l-4.358,6.485l4.378,2.837l-2.518,4.137l-6.892-4.833L320.905,471.443z"/>
				<path d="M328.002,482.278l-3.807,1.644l5.323-18.823l3.714-1.491L328.002,482.278z"/>
				<path d="M340,463.93c0,0.794-0.284,1.852-0.363,2.533l-0.093-0.009c0.433-0.972,1.28-1.893,2.474-2.381
					c2.352-0.962,3.501,0.743,3.501,4.071c0,3.756-1.821,7.688-5.474,9.266c-1.518,0.656-3.045,0.981-4.045,1.078v-13.985
					c-1,0.098-1,0.277-2,0.464v-2.889c2-0.882,4-1.662,6-2.354V463.93z M341.032,468.189c-0.647,0.27-1.032,1.438-1.032,3.287V474
					c0-0.019,0.129-0.054,0.463-0.196c0.824-0.351,1.528-1.345,1.528-3.643C341.991,468.438,341.679,467.921,341.032,468.189z"/>
				<path d="M351.115,472.583c-2.826,1.222-4.701,0.442-4.701-3.806c0-4.01,2.275-7.456,5.172-8.641
					c3.051-1.248,4.592,0.241,4.592,3.923C356.178,467.926,353.929,471.367,351.115,472.583z M351.379,463.889
					c-0.68,0.283-1.36,1.25-1.36,2.899c0,1.814,0.359,2.393,1.285,1.999c0.884-0.376,1.354-1.537,1.354-2.991
					C352.657,464.131,352.319,463.498,351.379,463.889z"/>
				<path d="M362.716,467.222c0-0.414,0.11-0.805,0.164-1.334l0.019,0.016c-0.469,1.099-1.273,2.148-2.563,2.706
					c-2.176,0.94-3.285-0.714-3.285-3.969c0-3.675,1.957-7.467,5.161-8.776c0.217-0.089-0.211-0.156,0.789-0.199v-1.979
					c-1,0.084-1,0.241-2,0.408v-2.746c2-0.809,3-1.517,5-2.14v13.58c0-0.09,1-0.256,1-0.43v2.713
					C366,465.914,364.154,466.669,362.716,467.222z M363,459.048c-1,0.014-0.583,0.073-0.818,0.171
					c-0.761,0.315-1.508,1.258-1.508,3.476c0,1.662,0.43,2.187,1.029,1.932c0.598-0.255,1.297-1.391,1.297-3.231V459.048z"/>
				<path d="M373.375,463.571c-1.023,4.01-2.103,5.436-4.188,6.357c-0.44,0.195-0.97,0.339-1.359,0.374l0.159-3.578
					c0.459,0.006,0.847-0.071,1.305-0.271c0.421-0.184,0.86-0.602,1.07-1.622l0.193-0.922l-3.099-9.991l3.519-1.44l0.506,1.85
					c0.227,0.833,0.505,2.119,0.697,3.235l0.035-0.015c0.226-1.404,0.573-3.151,0.781-4.026l0.485-2.07l3.352-1.372L373.375,463.571
					z"/>
				<path d="M379.43,461.437l-2.053-1.813l3.502-5.675l-3.519-2.745l2.036-3.577l5.4,4.652L379.43,461.437z"/>
				<path d="M275.308,522.272l2.969,1.872l-5.097,7.445l5.122,2.631l-2.944,4.727l-8.069-4.537L275.308,522.272z"/>
				<path d="M283.601,533.282l-4.446,2.157l6.216-20.866l4.332-1.971L283.601,533.282z"/>
				<path d="M298,512.97v13.33l-4,2.076v-13.429l-4,1.573v-4.195l11-5.006v4.117L298,512.97z"/>
				<path d="M302,524.145v-17.338l9-3.981v3.997l-4,2.124v2.422l4-2.031v3.847l-4,2.062v2.779l4-2.196v4.072L302,524.145z"/>
				<path d="M313,519.004v-17.02l4-1.822v16.899L313,519.004z"/>
				<path d="M321.411,516.458l-2.558-1.772l4.361-6.759l-4.383-2.64l2.537-4.236l6.715,4.543L321.411,516.458z"/>
			</g>
		</g>
	</g>
</g>
<g id="Calque_1">
	<g>
		<g>
			<polygon opacity="0.6" fill="#FFFFFF" stroke="#000000" stroke-width="4" stroke-miterlimit="10" points="572,454.777 
				370,590.74 370,20.881 572,108.167 			"/>
			
				<polygon fill="none" stroke="#000000" stroke-width="4" stroke-linecap="square" stroke-linejoin="bevel" stroke-miterlimit="10" points="
				572,454.777 370,590.74 370,20.881 572,108.167 			"/>
			<path fill="none" stroke="#000000" stroke-width="4" stroke-linecap="round" stroke-miterlimit="10" d="M386.149,215.198
				c76.383-158.033,148.228,96.844,148.228,96.844"/>
			<path fill="none" stroke="#000000" stroke-width="4" stroke-linecap="round" stroke-miterlimit="10" d="M395.304,379.32
				c1.401,1.581,55.19,14.112,72.032-84.076"/>
			<path fill="none" stroke="#000000" stroke-width="4" stroke-linecap="round" stroke-miterlimit="10" d="M398.649,423.879
				c108.745,49.646,124.021-64.764,124.021-64.764"/>
			
				<polygon opacity="0.6" fill="#FFFFFF" stroke="#000000" stroke-width="4" stroke-linecap="round" stroke-miterlimit="10" points="
				708,287.831 626,312.521 626,170.332 708,196.876 			"/>
			<polygon fill="none" stroke="#000000" stroke-width="4" stroke-linecap="round" stroke-miterlimit="10" points="707,286.831 
				625,311.521 625,169.332 707,195.876 			"/>
			<path fill="none" stroke="#000000" stroke-width="4" stroke-linecap="round" stroke-miterlimit="10" d="M664.499,215.832
				c-45.276-2.382-6.666,92.5,13.334,43.333c18.242-44.846,5.285-43.241-9.147-43.244
				C667.295,215.92,665.891,215.905,664.499,215.832z"/>
			<polygon fill="none" stroke="#000000" stroke-width="4" stroke-linecap="round" stroke-miterlimit="10" points="712,142.832 
				627,97.221 627,10.32 712,89.592 			"/>
			
				<polygon opacity="0.6" fill="#FFFFFF" stroke="#000000" stroke-width="4" stroke-linecap="round" stroke-miterlimit="10" points="
				711,143.832 626,98.221 626,11.32 711,90.592 			"/>
			<path fill="none" stroke="#000000" stroke-width="4" stroke-linecap="round" stroke-miterlimit="10" d="M477.617,173.797
				c11.667-10.27,62.717-169.113,184.273-94.985"/>
			<path fill="none" stroke="#000000" stroke-width="4" stroke-linecap="round" stroke-miterlimit="10" d="M454.617,370.797
				c14.09-13.555,75.744-223.209,222.549-125.369"/>
			<path fill="none" stroke="#000000" stroke-width="4" stroke-linecap="round" stroke-miterlimit="10" d="M662.445,63.132
				c-36.586-1.998-5.387,77.537,10.775,36.323c14.74-37.591,4.271-36.247-7.393-36.249C664.705,63.205,663.57,63.192,662.445,63.132
				z"/>
		</g>
		<g>
			<polygon fill="none" stroke="#000000" stroke-width="4" stroke-linecap="round" stroke-miterlimit="10" points="572,454.777 
				370,590.74 370,20.881 572,108.167 			"/>
			<polygon fill="none" stroke="#000000" stroke-width="4" stroke-linecap="round" stroke-miterlimit="10" points="572,454.777 
				370,590.74 370,20.881 572,108.167 			"/>
			<path fill="none" stroke="#000000" stroke-width="4" stroke-linecap="round" stroke-miterlimit="10" d="M386.149,215.198
				c76.383-158.033,148.228,96.844,148.228,96.844"/>
			<path fill="none" stroke="#000000" stroke-width="4" stroke-linecap="round" stroke-miterlimit="10" d="M395.304,379.32
				c1.401,1.581,55.19,14.112,72.032-84.076"/>
			<path fill="none" stroke="#000000" stroke-width="4" stroke-linecap="round" stroke-miterlimit="10" d="M398.649,423.879
				c108.745,49.646,124.021-64.764,124.021-64.764"/>
			<polygon fill="none" stroke="#000000" stroke-width="4" stroke-linecap="round" stroke-miterlimit="10" points="708,287.831 
				626,312.521 626,170.332 708,196.876 			"/>
			<polygon fill="none" stroke="#000000" stroke-width="4" stroke-linecap="round" stroke-miterlimit="10" points="707,286.831 
				625,311.521 625,169.332 707,195.876 			"/>
			<path fill="none" stroke="#000000" stroke-width="4" stroke-linecap="round" stroke-miterlimit="10" d="M664.499,215.832
				c-45.276-2.382-6.666,92.5,13.334,43.333c18.242-44.846,5.285-43.241-9.147-43.244
				C667.295,215.92,665.891,215.905,664.499,215.832z"/>
			<polygon fill="none" stroke="#000000" stroke-width="4" stroke-linecap="round" stroke-miterlimit="10" points="712,142.832 
				627,97.221 627,10.32 712,89.592 			"/>
			<polygon fill="none" stroke="#000000" stroke-width="4" stroke-linecap="round" stroke-miterlimit="10" points="711,143.832 
				626,98.221 626,11.32 711,90.592 			"/>
			<path fill="none" stroke="#000000" stroke-width="4" stroke-linecap="round" stroke-miterlimit="10" d="M477.617,173.797
				c11.667-10.27,62.717-169.113,184.273-94.985"/>
			<path fill="none" stroke="#000000" stroke-width="4" stroke-linecap="round" stroke-miterlimit="10" d="M454.617,370.797
				c14.09-13.555,75.744-223.209,222.549-125.369"/>
			<path fill="none" stroke="#000000" stroke-width="4" stroke-linecap="round" stroke-miterlimit="10" d="M662.445,63.132
				c-36.586-1.998-5.387,77.537,10.775,36.323c14.74-37.591,4.271-36.247-7.393-36.249C664.705,63.205,663.57,63.192,662.445,63.132
				z"/>
		</g>
	</g>
</g>
</svg>
