<?xml version="1.0" encoding="utf-8"?>
<!-- Generator: Adobe Illustrator 16.0.4, SVG Export Plug-In . SVG Version: 6.00 Build 0)  -->
<!DOCTYPE svg PUBLIC "-//W3C//DTD SVG 1.1//EN" "http://www.w3.org/Graphics/SVG/1.1/DTD/svg11.dtd">
<svg version="1.1" id="Calque_1" xmlns="http://www.w3.org/2000/svg" xmlns:xlink="http://www.w3.org/1999/xlink" x="0px" y="0px"
	 width="640px" height="480px" viewBox="0 0 640 480" enable-background="new 0 0 640 480" xml:space="preserve">
<polygon fill="none" stroke="#020202" stroke-width="2" stroke-miterlimit="10" points="403.116,51.897 473.105,74.547 
	403.116,101.067 333.129,74.547 "/>
<text transform="matrix(1 0 0 1 369.1826 78.9336)" font-family="'TheMix-Bold'" font-size="14.846">document</text>
<g>
	<g>
		<text transform="matrix(1 0 0 1 256.8398 165.418)" font-family="'TheMix-Regular'" font-size="14.846">ou</text>
		<text transform="matrix(1 0 0 1 329.6562 165.418)" font-family="'TheMix-Regular'" font-size="14.846">ou</text>
		<text transform="matrix(1 0 0 1 461.1484 165.418)" font-family="'TheMix-Regular'" font-size="14.846">ou</text>
		<g>
			<text transform="matrix(1 0 0 1 192.877 165.418)" font-family="'TheMix-Bold'" font-size="14.846">element</text>
			
				<rect x="188.5" y="149.753" fill="none" stroke="#000000" stroke-width="2" stroke-miterlimit="10" width="63.625" height="21.209"/>
		</g>
		<g>
			<text transform="matrix(1 0 0 1 284.6597 165.418)" font-family="'TheMix-Bold'" font-size="14.846">texte</text>
			<g id="id1270_Graphic">
				<path fill="none" stroke="#020202" stroke-width="2" stroke-miterlimit="10" d="M279.508,149.753h44.493v22.185
					c-13.349-2.772-31.145,8.318-44.493,2.771V149.753L279.508,149.753z"/>
				<path fill="none" stroke="#000000" stroke-linecap="round" stroke-linejoin="round" d="M279.508,149.753h44.493v22.185
					c-13.349-2.772-31.145,8.318-44.493,2.771V149.753L279.508,149.753z"/>
			</g>
		</g>
		<g>
			<text transform="matrix(1 0 0 1 492.1992 155.418)" font-family="'TheMix-Bold'" font-size="14.846">instruction </text>
			<text transform="matrix(1 0 0 1 492.1992 173.2324)" font-family="'TheMix-Bold'" font-size="14.846">de traitement</text>
			<path fill="none" stroke="#999393" stroke-width="2" stroke-linecap="round" stroke-linejoin="round" d="M499.361,139.563h77.695
				c9.188,0,16.646,8.712,16.646,19.445c0,10.733-7.458,19.445-16.646,19.445h-77.695c-9.19,0-16.65-8.712-16.65-19.445
				C482.711,148.273,490.171,139.563,499.361,139.563"/>
		</g>
		<g>
			<text transform="matrix(1 0 0 1 359.4492 165.418)" font-family="'TheMix-Bold'" font-size="14.846">commentaire</text>
			<g>
				<g>
					<polyline fill="none" stroke="#000000" stroke-width="2" stroke-miterlimit="10" points="454.08,164.962 454.08,170.962 
						448.08,170.962 					"/>
					
						<line fill="none" stroke="#000000" stroke-width="2" stroke-miterlimit="10" stroke-dasharray="12.7277,12.7277" x1="435.353" y1="170.962" x2="365.352" y2="170.962"/>
					<polyline fill="none" stroke="#000000" stroke-width="2" stroke-miterlimit="10" points="358.986,170.962 352.986,170.962 
						352.986,164.962 					"/>
					<polyline fill="none" stroke="#000000" stroke-width="2" stroke-miterlimit="10" points="352.986,155.563 352.986,149.563 
						358.986,149.563 					"/>
					
						<line fill="none" stroke="#000000" stroke-width="2" stroke-miterlimit="10" stroke-dasharray="12.7277,12.7277" x1="371.714" y1="149.563" x2="441.716" y2="149.563"/>
					<polyline fill="none" stroke="#000000" stroke-width="2" stroke-miterlimit="10" points="448.08,149.563 454.08,149.563 
						454.08,155.563 					"/>
				</g>
			</g>
		</g>
	</g>
	<g>
		<g>
			<polyline fill="none" stroke="#F95F9D" stroke-width="2" stroke-linejoin="round" points="607.5,187.5 607.5,193.5 601.5,193.5 
							"/>
			
				<line fill="none" stroke="#F95F9D" stroke-width="2" stroke-linejoin="round" stroke-dasharray="12.0286,12.0286" x1="589.472" y1="193.5" x2="186.514" y2="193.5"/>
			<polyline fill="none" stroke="#F95F9D" stroke-width="2" stroke-linejoin="round" points="180.5,193.5 174.5,193.5 174.5,187.5 
							"/>
			
				<line fill="none" stroke="#F95F9D" stroke-width="2" stroke-linejoin="round" stroke-dasharray="11.017,11.017" x1="174.5" y1="176.482" x2="174.5" y2="137.923"/>
			<polyline fill="none" stroke="#F95F9D" stroke-width="2" stroke-linejoin="round" points="174.5,132.415 174.5,126.415 
				180.5,126.415 			"/>
			
				<line fill="none" stroke="#F95F9D" stroke-width="2" stroke-linejoin="round" stroke-dasharray="12.0286,12.0286" x1="192.528" y1="126.415" x2="595.485" y2="126.415"/>
			<polyline fill="none" stroke="#F95F9D" stroke-width="2" stroke-linejoin="round" points="601.5,126.415 607.5,126.415 
				607.5,132.415 			"/>
			
				<line fill="none" stroke="#F95F9D" stroke-width="2" stroke-linejoin="round" stroke-dasharray="11.017,11.017" x1="607.5" y1="143.432" x2="607.5" y2="181.992"/>
		</g>
	</g>
	<text transform="matrix(1 0 0 1 485.4492 216.418)" fill="#F95F9D" font-family="'TheMix-Bold'" font-size="14.846">0, 1 ou plusieurs</text>
</g>
<g>
	<g>
		<g>
			<path fill="none" stroke="#000000" stroke-width="2" stroke-linecap="round" stroke-linejoin="round" d="M97.387,272.062h51.015
				c6.032,0,10.929,4.795,10.929,10.699c0,5.905-4.897,10.699-10.929,10.699H97.387c-6.034,0-10.933-4.794-10.933-10.699
				C86.454,276.855,91.353,272.062,97.387,272.062"/>
		</g>
		<g>
			<text transform="matrix(1 0 0 1 95.877 287.8232)" font-family="'TheMix-Bold'" font-size="14.846">attribut</text>
		</g>
		<g>
			<text transform="matrix(1 0 0 1 12.877 287.8232)" font-family="'TheMix-Bold'" font-size="14.846">espace </text>
			<text transform="matrix(1 0 0 1 12.877 305.6367)" font-family="'TheMix-Bold'" font-size="14.846">de nom</text>
		</g>
	</g>
</g>
<g>
	<g>
		<text transform="matrix(1 0 0 1 256.8398 292.0029)" font-family="'TheMix-Regular'" font-size="14.846">ou</text>
		<text transform="matrix(1 0 0 1 329.6562 292.0029)" font-family="'TheMix-Regular'" font-size="14.846">ou</text>
		<text transform="matrix(1 0 0 1 461.1484 292.0029)" font-family="'TheMix-Regular'" font-size="14.846">ou</text>
		<g>
			<text transform="matrix(1 0 0 1 192.877 292.0029)" font-family="'TheMix-Bold'" font-size="14.846">element</text>
			
				<rect x="188.5" y="276.338" fill="none" stroke="#000000" stroke-width="2" stroke-miterlimit="10" width="63.625" height="21.209"/>
		</g>
		<g>
			<text transform="matrix(1 0 0 1 284.6597 292.0029)" font-family="'TheMix-Bold'" font-size="14.846">texte</text>
			<g id="id1270_Graphic_1_">
				<path fill="none" stroke="#020202" stroke-width="2" stroke-miterlimit="10" d="M279.508,276.338h44.493v22.186
					c-13.349-2.773-31.145,8.317-44.493,2.771V276.338L279.508,276.338z"/>
				<path fill="none" stroke="#000000" stroke-linecap="round" stroke-linejoin="round" d="M279.508,276.338h44.493v22.186
					c-13.349-2.773-31.145,8.317-44.493,2.771V276.338L279.508,276.338z"/>
			</g>
		</g>
		<g>
			<text transform="matrix(1 0 0 1 492.1992 282.0029)" font-family="'TheMix-Bold'" font-size="14.846">instruction </text>
			<text transform="matrix(1 0 0 1 492.1992 299.8164)" font-family="'TheMix-Bold'" font-size="14.846">de traitement</text>
			<path fill="none" stroke="#999393" stroke-width="2" stroke-linecap="round" stroke-linejoin="round" d="M499.361,266.147h77.695
				c9.188,0,16.646,8.713,16.646,19.444c0,10.733-7.458,19.445-16.646,19.445h-77.695c-9.19,0-16.65-8.712-16.65-19.445
				S490.171,266.147,499.361,266.147"/>
		</g>
		<g>
			<text transform="matrix(1 0 0 1 359.4492 292.0029)" font-family="'TheMix-Bold'" font-size="14.846">commentaire</text>
			<g>
				<g>
					<polyline fill="none" stroke="#000000" stroke-width="2" stroke-miterlimit="10" points="454.08,291.547 454.08,297.547 
						448.08,297.547 					"/>
					
						<line fill="none" stroke="#000000" stroke-width="2" stroke-miterlimit="10" stroke-dasharray="12.7277,12.7277" x1="435.353" y1="297.547" x2="365.352" y2="297.547"/>
					<polyline fill="none" stroke="#000000" stroke-width="2" stroke-miterlimit="10" points="358.986,297.547 352.986,297.547 
						352.986,291.547 					"/>
					<polyline fill="none" stroke="#000000" stroke-width="2" stroke-miterlimit="10" points="352.986,282.147 352.986,276.147 
						358.986,276.147 					"/>
					
						<line fill="none" stroke="#000000" stroke-width="2" stroke-miterlimit="10" stroke-dasharray="12.7277,12.7277" x1="371.714" y1="276.147" x2="441.716" y2="276.147"/>
					<polyline fill="none" stroke="#000000" stroke-width="2" stroke-miterlimit="10" points="448.08,276.147 454.08,276.147 
						454.08,282.147 					"/>
				</g>
			</g>
		</g>
	</g>
	<g>
		<g>
			<polyline fill="none" stroke="#F95F9D" stroke-width="2" stroke-linejoin="round" points="607.5,314.085 607.5,320.085 
				601.5,320.085 			"/>
			
				<line fill="none" stroke="#F95F9D" stroke-width="2" stroke-linejoin="round" stroke-dasharray="12.0286,12.0286" x1="589.472" y1="320.085" x2="186.514" y2="320.085"/>
			<polyline fill="none" stroke="#F95F9D" stroke-width="2" stroke-linejoin="round" points="180.5,320.085 174.5,320.085 
				174.5,314.085 			"/>
			
				<line fill="none" stroke="#F95F9D" stroke-width="2" stroke-linejoin="round" stroke-dasharray="11.017,11.017" x1="174.5" y1="303.067" x2="174.5" y2="264.509"/>
			<polyline fill="none" stroke="#F95F9D" stroke-width="2" stroke-linejoin="round" points="174.5,259 174.5,253 180.5,253 			"/>
			
				<line fill="none" stroke="#F95F9D" stroke-width="2" stroke-linejoin="round" stroke-dasharray="12.0286,12.0286" x1="192.528" y1="253" x2="595.485" y2="253"/>
			<polyline fill="none" stroke="#F95F9D" stroke-width="2" stroke-linejoin="round" points="601.5,253 607.5,253 607.5,259 			"/>
			
				<line fill="none" stroke="#F95F9D" stroke-width="2" stroke-linejoin="round" stroke-dasharray="11.017,11.017" x1="607.5" y1="270.017" x2="607.5" y2="308.577"/>
		</g>
	</g>
	<text transform="matrix(1 0 0 1 485.4492 343.0029)" fill="#F95F9D" font-family="'TheMix-Bold'" font-size="14.846">0, 1 ou plusieurs</text>
	<text transform="matrix(1 0 0 1 345.001 343.0029)" fill="#F95F9D" font-family="'TheMix-Bold'" font-size="14.846">enfants</text>
	<text transform="matrix(1 0 0 1 31.4492 343.0029)" fill="#F95F9D" font-family="'TheMix-Bold'" font-size="14.846">0, 1 ou plusieurs</text>
</g>
<line fill="none" stroke="#F95F9D" stroke-width="2" x1="403.533" y1="126.415" x2="403.533" y2="100.964"/>
<line fill="none" stroke="#F95F9D" stroke-width="2" x1="124.815" y1="269.296" x2="215.138" y2="171.962"/>
<line fill="none" stroke="#F95F9D" stroke-width="2" x1="35.377" y1="267.812" x2="213.821" y2="171.962"/>
<line fill="none" stroke="#F95F9D" stroke-width="2" x1="265.125" y1="250.039" x2="215.138" y2="171.962"/>
</svg>
