<?xml version="1.0" encoding="utf-8"?>
<!-- Generator: Adobe Illustrator 16.0.4, SVG Export Plug-In . SVG Version: 6.00 Build 0)  -->
<!DOCTYPE svg PUBLIC "-//W3C//DTD SVG 1.1//EN" "http://www.w3.org/Graphics/SVG/1.1/DTD/svg11.dtd">
<svg version="1.1" id="Calque_1" xmlns:xl="http://www.w3.org/1999/xlink"
	 xmlns="http://www.w3.org/2000/svg" xmlns:xlink="http://www.w3.org/1999/xlink" x="0px" y="0px" width="800px" height="450px"
	 viewBox="0 0 800 450" enable-background="new 0 0 800 450" xml:space="preserve">
<text transform="matrix(1 0 0 1 299.2422 82.9082)" fill="#606060" font-family="'TheSans-RegularItalic'" font-size="38.9345">nom</text>
<text transform="matrix(1 0 0 1 400.4116 82.9082)" fill="#606060" font-family="'TheSans-RegularItalic'" font-size="38.9345">valeur</text>
<text transform="matrix(-4.371138e-08 1 -1 -4.371138e-08 313.689 104.7935)" fill="#606060" font-family="'TheSans-Light'" font-size="85.7297">{</text>
<text transform="matrix(-4.371139e-08 -1 1 -4.371139e-08 453.5605 261.6416)" fill="#606060" font-family="'TheSans-ExtraLight'" font-size="189.7971">{</text>
<text transform="matrix(1 0 0 1 335.4814 295.4258)" fill="#606060" font-family="'TheSans-RegularItalic'" font-size="38.9345">attribut</text>
<text transform="matrix(0.8169 0 0 1 20.4995 186.3311)" font-family="'MyriadPro-Regular'" font-size="45.5915">commencé </text>
<text transform="matrix(0.8169 0 0 1 202.3223 186.3311)" fill="#FC0079" font-family="'MyriadPro-Regular'" font-size="45.5915">&lt;date</text>
<text transform="matrix(0.8169 0 0 1 294.4619 186.3311)" font-family="'MyriadPro-Regular'" font-size="45.5915"> </text>
<text transform="matrix(0.8169 0 0 1 302.3564 186.3311)" fill="#5524CE" font-family="'MyriadPro-Regular'" font-size="45.5915">from=&quot;1736&quot;</text>
<text transform="matrix(0.8169 0 0 1 500.6387 186.3311)" fill="#FC0079" font-family="'MyriadPro-Regular'" font-size="45.5915">&gt;</text>
<text transform="matrix(0.8169 0 0 1 522.8359 186.3311)" font-family="'MyriadPro-Regular'" font-size="45.5915">en 1736</text>
<text transform="matrix(0.8169 0 0 1 646.4824 186.3311)" fill="#FC0079" font-family="'MyriadPro-Regular'" font-size="45.5915">&lt;/date&gt;</text>
<text transform="matrix(-4.371138e-08 1 -1 -4.371138e-08 425.0195 104.7935)" fill="#606060" font-family="'TheSans-Light'" font-size="85.7297">{</text>
</svg>
